<svg width="24" height="24" viewBox="0 0 24 24" fill="none" xmlns="http://www.w3.org/2000/svg">
<rect width="24" height="24" rx="4" fill="white"/>
<path d="M18.668 5.33333H5.33464C4.41797 5.33333 3.66797 6.08333 3.66797 7V17C3.66797 17.9167 4.41797 18.6667 5.33464 18.6667H18.668C19.5846 18.6667 20.3346 17.9167 20.3346 17V7C20.3346 6.08333 19.5846 5.33333 18.668 5.33333ZM18.668 17H5.33464V7H18.668V17ZM5.33464 2H18.668V3.66667H5.33464V2ZM5.33464 20.3333H18.668V22H5.33464V20.3333ZM12.0013 12C13.1513 12 14.0846 11.0667 14.0846 9.91667C14.0846 8.76667 13.1513 7.83333 12.0013 7.83333C10.8513 7.83333 9.91797 8.76667 9.91797 9.91667C9.91797 11.0667 10.8513 12 12.0013 12ZM12.0013 9.08333C12.4596 9.08333 12.8346 9.45833 12.8346 9.91667C12.8346 10.375 12.4596 10.75 12.0013 10.75C11.543 10.75 11.168 10.375 11.168 9.91667C11.168 9.45833 11.543 9.08333 12.0013 9.08333ZM16.168 15.325C16.168 13.5833 13.4096 12.8333 12.0013 12.8333C10.593 12.8333 7.83464 13.5833 7.83464 15.325V16.1667H16.168V15.325ZM9.34297 14.9167C9.8513 14.4833 11.0346 14.0833 12.0013 14.0833C12.9763 14.0833 14.1596 14.4833 14.668 14.9167H9.34297Z" fill="#AF1E57"/>
</svg>
